<svg id="Grupo_562" data-name="Grupo 562" xmlns="http://www.w3.org/2000/svg" width="28.579" height="35.723" viewBox="0 0 28.579 35.723">
  <path id="Trazado_183" data-name="Trazado 183" d="M31.525,11.663,22.9,3.036A3.569,3.569,0,0,0,20.379,2H7.572A3.568,3.568,0,0,0,4.018,5.572L4,34.151a3.568,3.568,0,0,0,3.554,3.572H29.006a3.583,3.583,0,0,0,3.572-3.572V14.2A3.583,3.583,0,0,0,31.525,11.663ZM23.291,25.22H20.075v5.358a1.786,1.786,0,0,1-3.572,0V25.22h-3.2a.884.884,0,0,1-.625-1.518l5-4.983a.917.917,0,0,1,1.268,0L23.934,23.7A.9.9,0,0,1,23.291,25.22ZM21.862,14.5a1.791,1.791,0,0,1-1.786-1.786V4.679L29.9,14.5Z" transform="translate(-4 -2)" fill="#797c7d"/>
</svg>
