<svg xmlns="http://www.w3.org/2000/svg" xmlns:xlink="http://www.w3.org/1999/xlink" width="48" height="48" viewBox="0 0 48 48"><defs><style>.a{clip-path:url(#b);}.b{fill:#36c;}</style><clipPath id="b"><rect width="48" height="48"/></clipPath></defs><g id="a" class="a"><g transform="translate(1.328)"><path class="b" d="M-366.006,30.407V28.562A16.858,16.858,0,0,0-370.4,17a15.164,15.164,0,0,0-11.253-4.841h-1.523A15.164,15.164,0,0,0-394.432,17a16.858,16.858,0,0,0-4.4,11.566v1.845A6.623,6.623,0,0,0-405,37v2.884a6.614,6.614,0,0,0,6.6,6.6h3.721a1.214,1.214,0,0,0,1.21-1.21V31.6a1.214,1.214,0,0,0-1.21-1.21h-1.735V28.562c0-7.977,5.687-13.987,13.22-13.987h1.523c7.543,0,13.22,6.01,13.22,13.987v1.825h-1.734a1.214,1.214,0,0,0-1.21,1.21V45.271a1.214,1.214,0,0,0,1.21,1.21h1.694c-.494,6.313-4.84,7.775-6.857,8.108a4.254,4.254,0,0,0-4.044-2.934h-3.025a4.252,4.252,0,0,0-4.245,4.245,4.261,4.261,0,0,0,4.245,4.256h3.035a4.256,4.256,0,0,0,4.094-3.126,11.442,11.442,0,0,0,4.1-1.4c2.189-1.281,4.78-3.892,5.123-9.156a6.612,6.612,0,0,0,6.2-6.595V36.992A6.589,6.589,0,0,0-366.006,30.407Z" transform="translate(405 -12.155)"/></g></g></svg>