<svg xmlns="http://www.w3.org/2000/svg" xmlns:xlink="http://www.w3.org/1999/xlink" width="48" height="48" viewBox="0 0 48 48"><defs><style>.a{clip-path:url(#b);}.b{fill:#36c;}</style><clipPath id="b"><rect width="48" height="48"/></clipPath></defs><g id="a" class="a"><path class="b" d="M33.071,318.177a3.931,3.931,0,0,1,4.244-.83,4.224,4.224,0,0,1,1.247.782,3.6,3.6,0,0,1,.853,1.171,3.427,3.427,0,0,1,.318,1.461,3.63,3.63,0,0,1-1.148,2.683,3.794,3.794,0,0,1-2.755,1.124,3.894,3.894,0,0,1-2.732-1.076,3.427,3.427,0,0,1-1.171-2.632A3.625,3.625,0,0,1,33.071,318.177Zm12.366,28.9a9.849,9.849,0,0,1-2.414,3.1,10.317,10.317,0,0,1-3.438,1.925,14.146,14.146,0,0,1-8.368.051,9.308,9.308,0,0,1-3.267-1.83,8.465,8.465,0,0,1-2.172-3A10.054,10.054,0,0,1,25,343.251a8.424,8.424,0,0,1,.437-2.831,9.268,9.268,0,0,1,1.171-2.243,14.571,14.571,0,0,1,1.683-1.954q.953-.923,2.025-1.949c.457-.421.845-.8,1.171-1.124a5.536,5.536,0,0,0,.806-1,3.848,3.848,0,0,0,.465-1.144A7.582,7.582,0,0,0,32.9,329.4v-1.854h5.855v2.684a11.386,11.386,0,0,1-.123,1.853,4.439,4.439,0,0,1-.437,1.342,5.644,5.644,0,0,1-.83,1.171q-.512.559-1.247,1.342l-3.756,3.8a4.288,4.288,0,0,0-1.219,3.172,4.119,4.119,0,0,0,1.243,3.1,4.356,4.356,0,0,0,3.148,1.194,4.425,4.425,0,0,0,3.367-1.389,5.575,5.575,0,0,0,1.512-3.39l6.245.488A12.713,12.713,0,0,1,45.437,347.082Zm19.488-6.856a3.794,3.794,0,0,1-2.755,1.124,3.87,3.87,0,0,1-1.489-.294,4.2,4.2,0,0,1-1.243-.782,3.51,3.51,0,0,1-.853-1.171,3.367,3.367,0,0,1-.318-1.461,3.633,3.633,0,0,1,1.144-2.683,3.81,3.81,0,0,1,2.759-1.124A3.927,3.927,0,0,1,64.9,334.91a3.44,3.44,0,0,1,1.171,2.632A3.623,3.623,0,0,1,64.925,340.225Zm7.634-22.243a9.169,9.169,0,0,1-1.171,2.243,14.569,14.569,0,0,1-1.683,1.954c-.632.615-1.31,1.266-2.025,1.949-.457.425-.845.8-1.171,1.124a5.53,5.53,0,0,0-.8,1,3.6,3.6,0,0,0-.464,1.171,7.252,7.252,0,0,0-.147,1.584v1.854H59.24v-2.684a12.028,12.028,0,0,1,.123-1.83,4.483,4.483,0,0,1,.441-1.365,5.491,5.491,0,0,1,.83-1.171c.341-.373.754-.822,1.243-1.342l3.756-3.8a4.287,4.287,0,0,0,1.219-3.172,4.1,4.1,0,0,0-1.243-3.1A4.355,4.355,0,0,0,62.46,311.2a4.416,4.416,0,0,0-3.363,1.389,5.529,5.529,0,0,0-1.512,3.39l-6.245-.488a12.63,12.63,0,0,1,1.219-4.173,9.909,9.909,0,0,1,2.414-3.1,10.3,10.3,0,0,1,3.442-1.925,13.287,13.287,0,0,1,4.291-.659,12.6,12.6,0,0,1,4.073.635,9.725,9.725,0,0,1,3.267,1.826,8.2,8.2,0,0,1,2.171,2.977A10.053,10.053,0,0,1,73,315.152,8.318,8.318,0,0,1,72.559,317.982Z" transform="translate(-25 -305.14)"/></g></svg>