<svg xmlns="http://www.w3.org/2000/svg" xmlns:xlink="http://www.w3.org/1999/xlink" width="48" height="48" viewBox="0 0 48 48"><defs><style>.a{clip-path:url(#b);}.b{fill:#36c;}</style><clipPath id="b"><rect width="48" height="48"/></clipPath></defs><g id="a" class="a"><path class="b" d="M350.257,173H307.743A2.743,2.743,0,0,0,305,175.743v31.543a2.743,2.743,0,0,0,2.743,2.743h42.514A2.743,2.743,0,0,0,353,207.286V175.743A2.743,2.743,0,0,0,350.257,173Zm-3.239,29.426a1.343,1.343,0,0,1,.054,1.9,1.37,1.37,0,0,1-.981.409,1.324,1.324,0,0,1-.916-.366l-11.908-11.359-3.352,3a1.331,1.331,0,0,1-.895.345,1.274,1.274,0,0,1-.883-.345l-3.255-2.91-12.016,11.2a1.345,1.345,0,0,1-.916.355,1.366,1.366,0,0,1-.981-.431,1.33,1.33,0,0,1,.064-1.886l11.833-11.046-11.844-10.626a1.343,1.343,0,1,1,1.789-2l12.824,11.51c.075.064.141.129.216.194,0,.01.011.021.021.032l3.147,2.823,16.2-14.484a1.343,1.343,0,1,1,1.8,1.993l-11.746,10.5Z" transform="translate(-305 -167.814)"/></g></svg>